<svg width="52" height="37" viewBox="0 0 52 37" fill="none" xmlns="http://www.w3.org/2000/svg">
<path fill-rule="evenodd" clip-rule="evenodd" d="M1 28.5162C4.24791 26.2388 8.29741 25.3552 8.6274 24.5664C9.17278 23.2627 9.17278 22.6555 9.17278 21.0928C9.17278 19.5301 7.13764 16.843 7.13764 16.843C7.13764 16.843 5.83677 16.2751 5.47104 14.8199C5.22513 13.8414 5.7687 12.7262 6.05724 12.5485C5.28596 10.1952 3.74557 2.08197 12.5588 1.78783C12.5974 1.78669 12.6361 1.7857 12.675 1.79123C14.5757 1.85469 15.9914 2.28648 17.0352 2.94779C17.1712 4.41689 17.4931 5.69504 17.7483 6.47384C17.3838 6.69828 16.6972 8.10704 17.0078 9.34307C17.4698 11.1813 19.1131 11.8987 19.1131 11.8987C19.1131 11.8987 19.1667 11.9695 19.2584 12.0965C19.2117 12.2646 19.1655 12.4167 19.1218 12.5502C19.4103 12.7279 19.9539 13.8431 19.7079 14.8216C19.3422 16.2767 18.0413 16.8447 18.0413 16.8447C18.0413 16.8447 16.0062 19.5318 16.0062 21.0945C16.0062 22.3973 16.0062 23.036 16.3222 23.9678C12.1215 25.794 6.57168 28.8405 6.20833 34.9848H25.8919L45.7917 34.9869C45.4215 28.7278 39.6693 25.6833 35.4437 23.8688C35.7353 22.9762 35.7353 22.3373 35.7353 21.0691C35.7353 19.5064 33.7001 16.8192 33.7001 16.8192C33.7001 16.8192 32.3993 16.2513 32.0335 14.7961C31.7876 13.8177 32.3312 12.7024 32.6197 12.5248C32.6015 12.4692 32.5829 12.4105 32.564 12.3487C32.7606 12.0676 32.8869 11.9008 32.8869 11.9008C32.8869 11.9008 34.5302 11.1834 34.9922 9.34519C35.3028 8.10916 34.6162 6.7004 34.2517 6.47596C34.5171 5.66608 34.8546 4.31619 34.9816 2.77316C36.0056 2.19576 37.3557 1.823 39.1213 1.76407C39.1599 1.76293 39.1986 1.76194 39.2375 1.76747C47.9959 2.05989 46.4555 10.1731 45.6842 12.5264C45.9728 12.7041 46.5164 13.8193 46.2704 14.7978C45.9047 16.253 44.6038 16.8209 44.6038 16.8209C44.6038 16.8209 42.5687 19.508 42.5687 21.0708C42.5687 22.6335 42.5687 23.2406 43.1141 24.5443C43.4529 25.3542 47.7126 26.264 51 28.6796V35.0961L39.0665 35.0948H28.2556C28.2561 35.1033 28.2566 35.1118 28.2571 35.1203L12.504 35.1186H1V28.5162Z" stroke="#1F2B6C" stroke-width="2" stroke-linecap="round" stroke-linejoin="round"/>
</svg>
